<svg xmlns="http://www.w3.org/2000/svg" viewBox="0 0 1600 900" role="img" aria-labelledby="title desc">
<title id="title">Ilustración editorial sobre derrame pleural</title>
<desc id="desc">Un pulmón estilizado sobre capas curvas que representan el espacio pleural y la respiración.</desc>
<defs>
<linearGradient id="bg" x1="0" y1="0" x2="1" y2="1"><stop stop-color="#09090B"/><stop offset=".52" stop-color="#311B92"/><stop offset="1" stop-color="#120726"/></linearGradient>
<linearGradient id="lung" x1="0" y1="0" x2="1" y2="1"><stop stop-color="#f8f7ff"/><stop offset=".45" stop-color="#c4b5fd"/><stop offset="1" stop-color="#7C3AED"/></linearGradient>
<radialGradient id="glow"><stop stop-color="#c4b5fd" stop-opacity=".26"/><stop offset="1" stop-color="#7C3AED" stop-opacity="0"/></radialGradient>
<filter id="blur"><feGaussianBlur stdDeviation="34"/></filter><filter id="shadow"><feDropShadow dy="24" stdDeviation="26" flood-color="#09090B" flood-opacity=".5"/></filter>
</defs>
<rect width="1600" height="900" fill="url(#bg)"/><circle cx="835" cy="400" r="360" fill="url(#glow)" filter="url(#blur)"/>
<g fill="none" stroke="#c4b5fd" stroke-linecap="round"><path d="M410 650c170-92 330-106 510-42s306 54 430-13" stroke-width="3" opacity=".45"/><path d="M400 708c181-87 342-90 520-27s309 42 428-24" stroke-width="2" opacity=".27"/><path d="M428 760c177-65 323-62 493-7s299 28 401-19" stroke-width="1" opacity=".3"/></g>
<g filter="url(#shadow)">
<path d="M790 255c-64-80-174-73-234-2-62 73-64 204-36 291 26 80 89 130 153 111 62-19 96-94 106-168 9-72 28-180 11-232Z" fill="url(#lung)"/>
<path d="M810 255c64-80 174-73 234-2 62 73 64 204 36 291-26 80-89 130-153 111-62-19-96-94-106-168-9-72-28-180-11-232Z" fill="url(#lung)" opacity=".9"/>
<path d="M800 215v160M800 375l-53 51M800 375l53 51" stroke="#f8f7ff" stroke-width="12" stroke-linecap="round" fill="none"/>
<path d="M756 325C690 373 650 457 630 582M844 325c66 48 106 132 126 257M724 405c-13 65-9 129 9 192M876 405c13 65 9 129-9 192" fill="none" stroke="#311B92" stroke-width="5" stroke-linecap="round" opacity=".5"/>
</g>
<circle cx="1190" cy="270" r="11" fill="#c4b5fd"/><circle cx="1190" cy="270" r="42" fill="none" stroke="#c4b5fd" stroke-width="2" opacity=".55"/><path d="M1190 328v102" stroke="#c4b5fd" stroke-width="2" stroke-dasharray="4 10" opacity=".55"/>
<g fill="#f8f7ff" font-family="DM Sans,Arial,sans-serif"><text x="112" y="128" font-size="18" letter-spacing="6" opacity=".72">CETRA · DIAGNÓSTICO RESPIRATORIO</text><text x="112" y="778" font-size="42">Cuando el espacio alrededor del pulmón cambia</text><text x="112" y="824" font-size="19" opacity=".65">Pleura · Síntomas de alarma · Valoración especializada</text></g><path d="M112 735h86" stroke="#c4b5fd" stroke-width="4"/>
</svg>